<?xml version="1.0" encoding="UTF-8"?>
<svg width="128" height="128" viewBox="0 0 128 128" fill="none" xmlns="http://www.w3.org/2000/svg">
  <rect width="128" height="128" rx="24" fill="#4F46E5"/>
  <path d="M64 32C45.2 32 30 47.2 30 66C30 84.8 45.2 100 64 100C82.8 100 98 84.8 98 66C98 47.2 82.8 32 64 32ZM64 92C48.5 92 36 79.5 36 64C36 48.5 48.5 36 64 36C79.5 36 92 48.5 92 64C92 79.5 79.5 92 64 92Z" fill="white"/>
  <path d="M64 40C52.9 40 44 48.9 44 60C44 71.1 52.9 80 64 80C75.1 80 84 71.1 84 60C84 48.9 75.1 40 64 40ZM64 72C57.4 72 52 67.6 52 61C52 54.4 57.4 50 64 50C70.6 50 76 54.4 76 61C76 67.6 70.6 72 64 72Z" fill="white"/>
</svg> 